<svg width="481" height="460" viewBox="0 0 481 460" fill="none" xmlns="http://www.w3.org/2000/svg">
<path d="M449.448 63.9406L36.0355 63.9406" stroke="#C7C9CC" stroke-width="2"/>
<path d="M479.137 137.678L65.7245 137.678" stroke="#C7C9CC" stroke-width="2"/>
<path d="M449.448 215.115L36.0355 215.115" stroke="#C7C9CC" stroke-width="2"/>
<path d="M449.448 286.232L36.0355 286.232" stroke="#C7C9CC" stroke-width="2"/>
<path d="M479.137 352.126L65.7245 352.126" stroke="#C7C9CC" stroke-width="2"/>
<path d="M99.2271 0.749054L99.2271 414.161" stroke="#C7C9CC" stroke-width="2"/>
<path d="M179.554 0.749054L179.554 414.161" stroke="#C7C9CC" stroke-width="2"/>
<path d="M255.498 0.749054L255.498 414.161" stroke="#C7C9CC" stroke-width="2"/>
<path d="M326.901 26.3441L326.901 439.756" stroke="#C7C9CC" stroke-width="2"/>
<path d="M398.304 46.5208L398.304 459.933" stroke="#C7C9CC" stroke-width="2"/>
<path d="M255.498 58.6328L268.55 81.2404H242.445L255.498 58.6328Z" fill="#328C4E"/>
<path d="M146.953 329.752L134.004 308.191L160.109 308.317L146.953 329.752Z" fill="#FC572E"/>
<path d="M295.953 72.0225H290.841V77.2065H288.801V72.0225H283.713V70.1745H288.801V64.9665H290.841V70.1745H295.953V72.0225ZM299.232 78.1185C301.264 76.4865 302.856 75.1505 304.008 74.1105C305.16 73.0545 306.128 71.9585 306.912 70.8225C307.712 69.6705 308.112 68.5425 308.112 67.4385C308.112 66.3985 307.856 65.5825 307.344 64.9905C306.848 64.3825 306.04 64.0785 304.92 64.0785C303.832 64.0785 302.984 64.4225 302.376 65.1105C301.784 65.7825 301.464 66.6865 301.416 67.8225H299.304C299.368 66.0305 299.912 64.6465 300.936 63.6705C301.96 62.6945 303.28 62.2065 304.896 62.2065C306.544 62.2065 307.848 62.6625 308.808 63.5745C309.784 64.4865 310.272 65.7425 310.272 67.3425C310.272 68.6705 309.872 69.9665 309.072 71.2305C308.288 72.4785 307.392 73.5825 306.384 74.5425C305.376 75.4865 304.088 76.5905 302.52 77.8545H310.776V79.6785H299.232V78.1185ZM313.3 71.0145C313.3 68.2625 313.748 66.1185 314.644 64.5825C315.54 63.0305 317.108 62.2545 319.348 62.2545C321.572 62.2545 323.132 63.0305 324.028 64.5825C324.924 66.1185 325.372 68.2625 325.372 71.0145C325.372 73.8145 324.924 75.9905 324.028 77.5425C323.132 79.0945 321.572 79.8705 319.348 79.8705C317.108 79.8705 315.54 79.0945 314.644 77.5425C313.748 75.9905 313.3 73.8145 313.3 71.0145ZM323.212 71.0145C323.212 69.6225 323.116 68.4465 322.924 67.4865C322.748 66.5105 322.372 65.7265 321.796 65.1345C321.236 64.5425 320.42 64.2465 319.348 64.2465C318.26 64.2465 317.428 64.5425 316.852 65.1345C316.292 65.7265 315.916 66.5105 315.724 67.4865C315.548 68.4465 315.46 69.6225 315.46 71.0145C315.46 72.4545 315.548 73.6625 315.724 74.6385C315.916 75.6145 316.292 76.3985 316.852 76.9905C317.428 77.5825 318.26 77.8785 319.348 77.8785C320.42 77.8785 321.236 77.5825 321.796 76.9905C322.372 76.3985 322.748 75.6145 322.924 74.6385C323.116 73.6625 323.212 72.4545 323.212 71.0145ZM327.891 66.4305C327.891 65.3425 328.219 64.4785 328.875 63.8385C329.531 63.1825 330.371 62.8545 331.395 62.8545C332.419 62.8545 333.259 63.1825 333.915 63.8385C334.571 64.4785 334.899 65.3425 334.899 66.4305C334.899 67.5345 334.571 68.4145 333.915 69.0705C333.259 69.7105 332.419 70.0305 331.395 70.0305C330.371 70.0305 329.531 69.7105 328.875 69.0705C328.219 68.4145 327.891 67.5345 327.891 66.4305ZM341.907 63.1185L332.187 79.8705H330.027L339.747 63.1185H341.907ZM331.395 64.1985C330.851 64.1985 330.419 64.3905 330.099 64.7745C329.795 65.1425 329.643 65.6945 329.643 66.4305C329.643 67.1665 329.795 67.7265 330.099 68.1105C330.419 68.4945 330.851 68.6865 331.395 68.6865C331.939 68.6865 332.371 68.4945 332.691 68.1105C333.011 67.7105 333.171 67.1505 333.171 66.4305C333.171 65.6945 333.011 65.1425 332.691 64.7745C332.371 64.3905 331.939 64.1985 331.395 64.1985ZM337.083 76.5585C337.083 75.4545 337.411 74.5825 338.067 73.9425C338.723 73.2865 339.563 72.9585 340.587 72.9585C341.611 72.9585 342.443 73.2865 343.083 73.9425C343.739 74.5825 344.067 75.4545 344.067 76.5585C344.067 77.6465 343.739 78.5185 343.083 79.1745C342.443 79.8305 341.611 80.1585 340.587 80.1585C339.563 80.1585 338.723 79.8385 338.067 79.1985C337.411 78.5425 337.083 77.6625 337.083 76.5585ZM340.563 74.3265C340.019 74.3265 339.587 74.5185 339.267 74.9025C338.947 75.2705 338.787 75.8225 338.787 76.5585C338.787 77.2785 338.947 77.8305 339.267 78.2145C339.587 78.5825 340.019 78.7665 340.563 78.7665C341.107 78.7665 341.539 78.5825 341.859 78.2145C342.179 77.8305 342.339 77.2785 342.339 76.5585C342.339 75.8225 342.179 75.2705 341.859 74.9025C341.539 74.5185 341.107 74.3265 340.563 74.3265Z" fill="#328C4E"/>
<path d="M184.498 321.006V322.854H174.922V321.006H184.498ZM187.973 328.974C190.005 327.342 191.597 326.006 192.749 324.966C193.901 323.91 194.869 322.814 195.653 321.678C196.453 320.526 196.853 319.398 196.853 318.294C196.853 317.254 196.597 316.438 196.085 315.846C195.589 315.238 194.781 314.934 193.661 314.934C192.573 314.934 191.725 315.278 191.117 315.966C190.525 316.638 190.205 317.542 190.157 318.678H188.045C188.109 316.886 188.653 315.502 189.677 314.526C190.701 313.55 192.021 313.062 193.637 313.062C195.285 313.062 196.589 313.518 197.549 314.43C198.525 315.342 199.013 316.598 199.013 318.198C199.013 319.526 198.613 320.822 197.813 322.086C197.029 323.334 196.133 324.438 195.125 325.398C194.117 326.342 192.829 327.446 191.261 328.71H199.517V330.534H187.973V328.974ZM202.041 321.87C202.041 319.118 202.489 316.974 203.385 315.438C204.281 313.886 205.849 313.11 208.089 313.11C210.313 313.11 211.873 313.886 212.769 315.438C213.665 316.974 214.113 319.118 214.113 321.87C214.113 324.67 213.665 326.846 212.769 328.398C211.873 329.95 210.313 330.726 208.089 330.726C205.849 330.726 204.281 329.95 203.385 328.398C202.489 326.846 202.041 324.67 202.041 321.87ZM211.953 321.87C211.953 320.478 211.857 319.302 211.665 318.342C211.489 317.366 211.113 316.582 210.537 315.99C209.977 315.398 209.161 315.102 208.089 315.102C207.001 315.102 206.169 315.398 205.593 315.99C205.033 316.582 204.657 317.366 204.465 318.342C204.289 319.302 204.201 320.478 204.201 321.87C204.201 323.31 204.289 324.518 204.465 325.494C204.657 326.47 205.033 327.254 205.593 327.846C206.169 328.438 207.001 328.734 208.089 328.734C209.161 328.734 209.977 328.438 210.537 327.846C211.113 327.254 211.489 326.47 211.665 325.494C211.857 324.518 211.953 323.31 211.953 321.87ZM216.632 317.286C216.632 316.198 216.96 315.334 217.616 314.694C218.272 314.038 219.112 313.71 220.136 313.71C221.16 313.71 222 314.038 222.656 314.694C223.312 315.334 223.64 316.198 223.64 317.286C223.64 318.39 223.312 319.27 222.656 319.926C222 320.566 221.16 320.886 220.136 320.886C219.112 320.886 218.272 320.566 217.616 319.926C216.96 319.27 216.632 318.39 216.632 317.286ZM230.648 313.974L220.928 330.726H218.768L228.488 313.974H230.648ZM220.136 315.054C219.592 315.054 219.16 315.246 218.84 315.63C218.536 315.998 218.384 316.55 218.384 317.286C218.384 318.022 218.536 318.582 218.84 318.966C219.16 319.35 219.592 319.542 220.136 319.542C220.68 319.542 221.112 319.35 221.432 318.966C221.752 318.566 221.912 318.006 221.912 317.286C221.912 316.55 221.752 315.998 221.432 315.63C221.112 315.246 220.68 315.054 220.136 315.054ZM225.824 327.414C225.824 326.31 226.152 325.438 226.808 324.798C227.464 324.142 228.304 323.814 229.328 323.814C230.352 323.814 231.184 324.142 231.824 324.798C232.48 325.438 232.808 326.31 232.808 327.414C232.808 328.502 232.48 329.374 231.824 330.03C231.184 330.686 230.352 331.014 229.328 331.014C228.304 331.014 227.464 330.694 226.808 330.054C226.152 329.398 225.824 328.518 225.824 327.414ZM229.304 325.182C228.76 325.182 228.328 325.374 228.008 325.758C227.688 326.126 227.528 326.678 227.528 327.414C227.528 328.134 227.688 328.686 228.008 329.07C228.328 329.438 228.76 329.622 229.304 329.622C229.848 329.622 230.28 329.438 230.6 329.07C230.92 328.686 231.08 328.134 231.08 327.414C231.08 326.678 230.92 326.126 230.6 325.758C230.28 325.374 229.848 325.182 229.304 325.182Z" fill="#FC572E"/>
<g filter="url(#filter0_d)">
<path fill-rule="evenodd" clip-rule="evenodd" d="M396.762 58.7489C398.908 58.2226 401.074 59.5353 401.6 61.6808L410.176 96.6443C410.702 98.7899 409.39 100.956 407.244 101.482C405.099 102.008 402.933 100.696 402.406 98.5502L396.084 72.7756C379.003 99.2463 351.588 134.27 319.066 162.134C283.271 192.801 240.347 215.588 197.805 207.093C159.411 199.425 125.843 222.494 98.985 256.179C72.2326 289.731 53.0703 332.742 43.6533 362.105L36.0355 359.661C45.6492 329.686 65.1982 285.721 92.7299 251.191C120.156 216.794 156.444 190.675 199.372 199.247C238.152 206.992 278.545 186.316 313.861 156.059C345.504 128.948 372.313 94.7779 389.083 68.8696L363.704 75.0948C361.559 75.6211 359.393 74.3085 358.867 72.1629C358.34 70.0174 359.653 67.8515 361.799 67.3252L396.762 58.7489Z" fill="#0137FF"/>
</g>
<g filter="url(#filter1_d)">
<path d="M296.23 218.819L298.377 222.194L298.437 222.156L298.496 222.115L296.23 218.819ZM446.9 222.819C449.109 222.819 450.9 221.028 450.9 218.819V182.819C450.9 180.61 449.109 178.819 446.9 178.819C444.69 178.819 442.9 180.61 442.9 182.819V214.819L410.9 214.819C408.69 214.819 406.9 216.61 406.9 218.819C406.9 221.028 408.69 222.819 410.9 222.819L446.9 222.819ZM37.8054 281.277C42.9774 262.719 54.3215 237.792 71.2591 222.688C79.6569 215.2 89.2594 210.272 100.067 209.503C110.855 208.736 123.371 212.076 137.685 222.096L142.273 215.542C126.825 204.729 112.524 200.597 99.4994 201.524C86.4934 202.449 75.2857 208.379 65.9348 216.717C47.3751 233.267 35.4677 259.865 30.099 279.129L37.8054 281.277ZM137.685 222.096C168.412 243.605 201.68 248.049 230.624 244.932C259.497 241.822 284.261 231.177 298.377 222.194L294.082 215.445C280.917 223.823 257.317 234.011 229.767 236.978C202.286 239.937 171.071 235.701 142.273 215.542L137.685 222.096ZM298.496 222.115C312.969 212.165 337.768 200.182 364.821 196.698C391.768 193.229 420.626 198.203 444.071 221.648L449.728 215.991C424.066 190.328 392.47 185.072 363.799 188.764C335.235 192.442 309.253 205.012 293.963 215.523L298.496 222.115Z" fill="#3A3B41"/>
</g>
<defs>
<filter id="filter0_d" x="19.0355" y="48.6328" width="408.257" height="337.472" filterUnits="userSpaceOnUse" color-interpolation-filters="sRGB">
<feFlood flood-opacity="0" result="BackgroundImageFix"/>
<feColorMatrix in="SourceAlpha" type="matrix" values="0 0 0 0 0 0 0 0 0 0 0 0 0 0 0 0 0 0 127 0"/>
<feOffset dy="7"/>
<feGaussianBlur stdDeviation="8.5"/>
<feColorMatrix type="matrix" values="0 0 0 0 0.227451 0 0 0 0 0.231373 0 0 0 0 0.254902 0 0 0 0.5 0"/>
<feBlend mode="normal" in2="BackgroundImageFix" result="effect1_dropShadow"/>
<feBlend mode="normal" in="SourceGraphic" in2="effect1_dropShadow" result="shape"/>
</filter>
<filter id="filter1_d" x="0.0990295" y="158.819" width="480.801" height="162.458" filterUnits="userSpaceOnUse" color-interpolation-filters="sRGB">
<feFlood flood-opacity="0" result="BackgroundImageFix"/>
<feColorMatrix in="SourceAlpha" type="matrix" values="0 0 0 0 0 0 0 0 0 0 0 0 0 0 0 0 0 0 127 0"/>
<feOffset dy="10"/>
<feGaussianBlur stdDeviation="15"/>
<feColorMatrix type="matrix" values="0 0 0 0 0.227451 0 0 0 0 0.231373 0 0 0 0 0.254902 0 0 0 0.5 0"/>
<feBlend mode="normal" in2="BackgroundImageFix" result="effect1_dropShadow"/>
<feBlend mode="normal" in="SourceGraphic" in2="effect1_dropShadow" result="shape"/>
</filter>
</defs>
</svg>
